<?xml version="1.0" encoding="UTF-8"?>
<svg xmlns="http://www.w3.org/2000/svg" version="1.1" viewBox="0 0 1024 1024">
  <!-- Generator: Adobe Illustrator 30.2.1, SVG Export Plug-In . SVG Version: 2.1.1 Build 1)  -->
  <defs>
    <style>
      .st0 {
        fill: #fff;
      }

      .st1 {
        fill: #fde68a;
      }

      .st2 {
        fill: #111827;
      }

      .st3 {
        fill: #22c55e;
      }
    </style>
  </defs>
  <g id="Layer_1" shape-rendering="crispEdges">
    <g>
      <rect class="st3" x="315.1" width="393.8" height="78.8"/>
      <rect class="st3" x="216.6" y="78.8" width="590.8" height="78.8"/>
      <rect class="st3" x="118.2" y="157.5" width="98.5" height="78.8"/>
      <rect class="st3" x="462.8" y="157.5" width="196.9" height="78.8"/>
      <rect class="st3" x="807.4" y="157.5" width="98.5" height="78.8"/>
      <rect class="st3" x="68.9" y="236.3" width="147.7" height="78.8"/>
      <rect class="st3" x="462.8" y="236.3" width="196.9" height="78.8"/>
      <rect class="st3" x="807.4" y="236.3" width="147.7" height="78.8"/>
      <rect class="st3" x="19.7" y="315.1" width="196.9" height="78.8"/>
      <rect class="st3" x="462.8" y="315.1" width="196.9" height="78.8"/>
      <rect class="st3" x="807.4" y="315.1" width="196.9" height="78.8"/>
      <rect class="st3" x="19.7" y="393.8" width="443.1" height="78.8"/>
      <rect class="st3" x="708.9" y="393.8" width="295.4" height="78.8"/>
      <rect class="st3" x="68.9" y="472.6" width="393.8" height="78.8"/>
      <rect class="st3" x="708.9" y="472.6" width="246.2" height="78.8"/>
    </g>
    <g>
      <rect class="st0" x="216.6" y="157.5" width="246.2" height="236.3"/>
      <rect class="st0" x="659.7" y="157.5" width="147.7" height="236.3"/>
      <rect class="st0" x="462.8" y="393.8" width="246.2" height="157.5"/>
    </g>
    <g>
      <rect class="st1" x="216.6" y="551.4" width="590.8" height="78.8"/>
      <rect class="st1" x="167.4" y="630.2" width="689.2" height="78.8"/>
      <rect class="st1" x="167.4" y="708.9" width="98.5" height="157.5"/>
      <rect class="st1" x="364.3" y="708.9" width="295.4" height="157.5"/>
      <rect class="st1" x="758.2" y="708.9" width="98.5" height="157.5"/>
      <rect class="st1" x="167.4" y="866.5" width="689.2" height="78.8"/>
      <rect class="st1" x="216.6" y="945.2" width="590.8" height="78.8"/>
    </g>
    <g>
      <rect class="st2" x="265.8" y="708.9" width="98.5" height="157.5"/>
      <rect class="st2" x="659.7" y="708.9" width="98.5" height="157.5"/>
    </g>
  </g>
</svg>